<svg width="14" height="15" viewBox="0 0 14 15" fill="none" xmlns="http://www.w3.org/2000/svg">
<path d="M1.58399 14.1602C1.17149 14.1602 0.818236 14.0132 0.524236 13.7192C0.230236 13.4252 0.0834856 13.0722 0.0839856 12.6602V2.16016C0.0839856 1.74766 0.230986 1.39441 0.524986 1.10041C0.818986 0.806407 1.17199 0.659658 1.58399 0.660158H12.084C12.4965 0.660158 12.8497 0.807158 13.1437 1.10116C13.4377 1.39516 13.5845 1.74816 13.584 2.16016V12.6602C13.584 13.0727 13.437 13.4259 13.143 13.7199C12.849 14.0139 12.496 14.1607 12.084 14.1602H1.58399ZM1.58399 12.6602H12.084V2.16016H1.58399V12.6602ZM5.78399 10.2414C5.88399 10.2414 5.97774 10.2257 6.06524 10.1942C6.15274 10.1627 6.23399 10.1097 6.30899 10.0352L10.5652 5.77891C10.7027 5.64141 10.7715 5.47266 10.7715 5.27266C10.7715 5.07266 10.6965 4.89766 10.5465 4.74766C10.409 4.61016 10.234 4.54141 10.0215 4.54141C9.80899 4.54141 9.63399 4.61016 9.49649 4.74766L5.78399 8.46016L4.15274 6.82891C4.01524 6.69141 3.84649 6.62266 3.64649 6.62266C3.44649 6.62266 3.27149 6.69766 3.12149 6.84766C2.98399 6.98516 2.91524 7.16016 2.91524 7.37266C2.91524 7.58516 2.98399 7.76016 3.12149 7.89766L5.25899 10.0352C5.33399 10.1102 5.41524 10.1632 5.50274 10.1942C5.59024 10.2252 5.68399 10.2409 5.78399 10.2414Z" fill="black"/>
</svg>
