<svg width="20" height="19" viewBox="0 0 20 19" fill="none" xmlns="http://www.w3.org/2000/svg">
<path d="M17.3235 18.0703L14.1353 14.7842C12.7597 15.4305 11.2634 15.7546 9.75195 15.737C8.19395 15.7565 6.6521 15.4099 5.24325 14.7235C4.15139 14.1745 3.17094 13.4162 2.3543 12.4891C1.4874 11.5313 0.806064 10.4116 0.346953 9.19026L0.251953 8.8828L0.351703 8.57339C1.03837 6.76809 2.194 5.19249 3.6919 4.01929L1.20195 1.45289L2.5443 0.0703125L18.6649 16.6858L17.3254 18.0703H17.3235ZM5.03615 5.40579C3.82198 6.28303 2.86317 7.48525 2.2631 8.8828C2.89193 10.3782 3.94203 11.6444 5.27732 12.5173C6.6126 13.3903 8.1715 13.8297 9.75195 13.7786C10.7493 13.7871 11.7408 13.6215 12.6846 13.289L10.9746 11.5265C10.5946 11.7185 10.1766 11.8193 9.75195 11.8203C8.99755 11.8154 8.27538 11.5044 7.74193 10.9545C7.20847 10.4047 6.90669 9.66037 6.90195 8.8828C6.90195 8.44512 6.9998 8.0133 7.18695 7.61968L5.03615 5.40579ZM17.2114 12.4176L15.889 11.0556C16.4453 10.4073 16.9013 9.6744 17.2408 8.8828C16.6128 7.3868 15.5629 6.11998 14.2274 5.24691C12.892 4.37384 11.3326 3.93486 9.75195 3.98697C9.5173 3.98697 9.2817 3.99579 9.0537 4.01243L7.37695 2.28225C8.15785 2.10991 8.95395 2.02473 9.75195 2.02864C11.31 2.00906 12.8518 2.35568 14.2607 3.04208C15.3532 3.59041 16.3326 4.34927 17.1496 5.27654C18.0161 6.23314 18.6974 7.35146 19.157 8.57143L19.252 8.8828L19.1522 9.19222C18.7074 10.3849 18.0494 11.481 17.2123 12.4235L17.2114 12.4176Z" fill="#B6B6B6"/>
</svg>
