<svg width="165" height="165" viewBox="0 0 165 165" fill="none" xmlns="http://www.w3.org/2000/svg">
<path fill-rule="evenodd" clip-rule="evenodd" d="M82.1877 164.272C127.42 164.272 164.088 127.604 164.088 82.3721C164.088 37.1397 127.42 0.47168 82.1877 0.47168C36.9554 0.47168 0.287354 37.1397 0.287354 82.3721C0.287354 127.604 36.9554 164.272 82.1877 164.272ZM120.139 69.136C124.137 65.138 124.137 58.6559 120.139 54.6579C116.141 50.6599 109.659 50.6599 105.661 54.6579L71.9502 88.3691L58.7141 75.133C54.7161 71.135 48.2341 71.135 44.2361 75.133C40.238 79.131 40.238 85.6131 44.2361 89.6111L64.7112 110.086C68.7092 114.084 75.1912 114.084 79.1892 110.086L120.139 69.136Z" fill="#008753"/>
</svg>
