<svg width="27" height="20" viewBox="0 0 27 20" fill="none" xmlns="http://www.w3.org/2000/svg">
<path d="M7.2059 19.0892C5.46646 19.0892 3.98259 18.4903 2.7543 17.2926C1.52601 16.0872 0.911865 14.6186 0.911865 12.8867C0.911865 11.3991 1.35817 10.0716 2.25078 8.90433C3.15102 7.73707 4.3259 6.99323 5.77544 6.67281C6.25608 4.9181 7.20972 3.49908 8.63637 2.41575C10.0706 1.32478 11.6918 0.779297 13.4999 0.779297C15.7353 0.779297 17.6273 1.55747 19.176 3.11381C20.7324 4.66253 21.5105 6.55455 21.5105 8.78989C22.8304 8.94247 23.9213 9.51466 24.7834 10.5064C25.6532 11.483 26.088 12.6273 26.088 13.9396C26.088 15.3738 25.5883 16.5907 24.5889 17.5901C23.5895 18.5895 22.3726 19.0892 20.9384 19.0892H14.6443C14.0187 19.0892 13.4809 18.8642 13.0307 18.414C12.5806 17.9716 12.3556 17.4337 12.3556 16.8005V10.907L10.5246 12.6808L8.92246 11.0786L13.4999 6.50115L18.0774 11.0786L16.4753 12.6808L14.6443 10.907V16.8005H20.9384C21.7394 16.8005 22.4146 16.522 22.9639 15.9651C23.5208 15.4158 23.7993 14.7406 23.7993 13.9396C23.7993 13.1385 23.5208 12.4633 22.9639 11.914C22.4146 11.3571 21.7394 11.0786 20.9384 11.0786H19.2218V8.78989C19.2218 7.21066 18.6649 5.8603 17.551 4.73882C16.4372 3.62497 15.0868 3.06804 13.4999 3.06804C11.9207 3.06804 10.5704 3.62497 9.44887 4.73882C8.33502 5.8603 7.77809 7.21066 7.77809 8.78989H7.2059C6.09968 8.78989 5.15748 9.18279 4.37931 9.96859C3.59351 10.7468 3.20061 11.689 3.20061 12.7952C3.20061 13.9014 3.59351 14.8551 4.37931 15.6561C5.15748 16.419 6.09968 16.8005 7.2059 16.8005H10.0668V19.0892" fill="#1B547F"/>
</svg>
