<svg width="25" height="25" viewBox="0 0 25 25" fill="none" xmlns="http://www.w3.org/2000/svg">
<g clip-path="url(#clip0_987_26604)">
<path d="M17.0615 21.7109V19.7109C17.0615 18.6501 16.6401 17.6327 15.89 16.8825C15.1398 16.1324 14.1224 15.7109 13.0615 15.7109H5.06152C4.00066 15.7109 2.98324 16.1324 2.2331 16.8825C1.48295 17.6327 1.06152 18.6501 1.06152 19.7109V21.7109" stroke="black" stroke-opacity="0.25" stroke-width="2" stroke-linecap="round" stroke-linejoin="round"/>
<path d="M9.06152 11.7109C11.2707 11.7109 13.0615 9.92008 13.0615 7.71094C13.0615 5.5018 11.2707 3.71094 9.06152 3.71094C6.85238 3.71094 5.06152 5.5018 5.06152 7.71094C5.06152 9.92008 6.85238 11.7109 9.06152 11.7109Z" stroke="black" stroke-opacity="0.25" stroke-width="2" stroke-linecap="round" stroke-linejoin="round"/>
<path d="M23.0615 21.7118V19.7118C23.0609 18.8255 22.7659 17.9646 22.2229 17.2641C21.6799 16.5637 20.9197 16.0634 20.0615 15.8418" stroke="black" stroke-opacity="0.25" stroke-width="2" stroke-linecap="round" stroke-linejoin="round"/>
<path d="M16.0615 3.8418C16.9219 4.0621 17.6846 4.5625 18.2292 5.26411C18.7738 5.96572 19.0694 6.82863 19.0694 7.7168C19.0694 8.60497 18.7738 9.46788 18.2292 10.1695C17.6846 10.8711 16.9219 11.3715 16.0615 11.5918" stroke="black" stroke-opacity="0.25" stroke-width="2" stroke-linecap="round" stroke-linejoin="round"/>
</g>
<defs>
<clipPath id="clip0_987_26604">
<rect width="24" height="24" fill="white" transform="translate(0.0615234 0.710938)"/>
</clipPath>
</defs>
</svg>
